<?xml version="1.0" standalone="no"?>
<!DOCTYPE svg PUBLIC "-//W3C//DTD SVG 20010904//EN"
 "http://www.w3.org/TR/2001/REC-SVG-20010904/DTD/svg10.dtd">
<svg version="1.0" xmlns="http://www.w3.org/2000/svg"
 width="128.000000pt" height="128.000000pt" viewBox="0 0 128.000000 128.000000"
 preserveAspectRatio="xMidYMid meet">
<metadata>
Created by potrace 1.11, written by Peter Selinger 2001-2013
</metadata>
<g transform="translate(0.000000,128.000000) scale(0.100000,-0.100000)"
fill="#000000" stroke="none">
<path d="M452 1200 c-142 -77 -236 -145 -348 -255 -77 -76 -94 -101 -94 -143
0 -36 45 -92 74 -92 28 0 26 -18 -14 -104 -62 -131 -54 -216 22 -216 15 0 27
-3 27 -8 -5 -31 19 -69 57 -90 14 -8 14 -12 -3 -46 l-18 -38 28 -24 c27 -23
80 -42 130 -46 20 -2 25 -7 23 -23 -12 -74 93 -128 181 -94 15 6 55 12 88 13
54 2 67 7 117 44 32 23 60 42 64 42 4 0 16 -7 26 -17 25 -22 109 -21 146 2 40
26 48 35 185 225 134 183 143 205 113 260 -9 15 -11 32 -6 45 12 32 0 73 -30
101 -15 15 -27 37 -28 53 0 15 -2 31 -3 36 -2 6 2 19 8 30 25 45 19 97 -13
126 -15 13 -42 39 -61 57 -44 42 -76 54 -132 50 -42 -2 -45 0 -46 22 -4 64
-55 100 -135 96 -25 -1 -60 -10 -78 -20 -32 -17 -34 -17 -38 1 -3 10 -20 28
-38 41 -52 35 -97 29 -204 -28z"/>
</g>
</svg>
